<mxfile host="app.diagrams.net" modified="2023-09-28T18:44:23.954Z" agent="Mozilla/5.0 (X11; Linux x86_64; rv:109.0) Gecko/20100101 Firefox/114.0" version="22.0.0" etag="hFZfUX6k0qusmGC5qQvn" type="github">
  <diagram name="PÃ¡gina-1" id="Z3-ALko1RFqqL-5KXz5H">
    <mxGraphModel>
      <root>
        <mxCell id="0" />
        <mxCell id="1" parent="0" />
      </root>
    </mxGraphModel>
  </diagram>
</mxfile>
